<svg width="248" height="53" viewBox="0 0 248 53" fill="none" xmlns="http://www.w3.org/2000/svg">
<path d="M108.56 36.9H110.56V27.1H108.56V25H117.62V23.8H119.76V30.14H117.58V27.14C117.58 27.1267 117.573 27.12 117.56 27.12C117.56 27.1067 117.553 27.1 117.54 27.1H112.76V36.9H116.12V39H108.56V36.9ZM124.94 39.2C123.913 39.2 122.987 38.98 122.16 38.54C121.347 38.0867 120.707 37.4667 120.24 36.68C119.773 35.88 119.54 34.9867 119.54 34C119.54 33.0133 119.773 32.1267 120.24 31.34C120.707 30.54 121.347 29.92 122.16 29.48C122.987 29.0267 123.913 28.8 124.94 28.8C125.967 28.8 126.887 29.0267 127.7 29.48C128.527 29.92 129.173 30.54 129.64 31.34C130.107 32.1267 130.34 33.0133 130.34 34C130.34 34.9867 130.107 35.88 129.64 36.68C129.173 37.4667 128.527 38.0867 127.7 38.54C126.887 38.98 125.967 39.2 124.94 39.2ZM124.94 37.3C125.58 37.3 126.153 37.16 126.66 36.88C127.18 36.5867 127.58 36.1933 127.86 35.7C128.153 35.1933 128.3 34.6267 128.3 34C128.3 33.3733 128.153 32.8133 127.86 32.32C127.58 31.8133 127.18 31.42 126.66 31.14C126.153 30.8467 125.58 30.7 124.94 30.7C124.3 30.7 123.72 30.8467 123.2 31.14C122.693 31.42 122.293 31.8133 122 32.32C121.72 32.8133 121.58 33.3733 121.58 34C121.58 34.6267 121.72 35.1933 122 35.7C122.293 36.1933 122.693 36.5867 123.2 36.88C123.72 37.16 124.3 37.3 124.94 37.3ZM139.667 38.06C139.4 38.34 139.047 38.5867 138.607 38.8C138.327 38.9333 138.027 39.0333 137.707 39.1C137.387 39.1667 137.047 39.2 136.687 39.2C135.767 39.2 134.927 38.9733 134.167 38.52C133.42 38.0667 132.827 37.4467 132.387 36.66C131.96 35.86 131.747 34.9733 131.747 34C131.747 33.0267 131.96 32.1467 132.387 31.36C132.827 30.56 133.42 29.9333 134.167 29.48C134.927 29.0267 135.767 28.8 136.687 28.8C137.327 28.8 137.914 28.9133 138.447 29.14C138.847 29.3133 139.2 29.54 139.507 29.82V28.4H141.287V32.86H139.387V32.34C139.347 32.0333 139.2 31.7533 138.947 31.5C138.707 31.2467 138.4 31.0467 138.027 30.9C137.667 30.74 137.28 30.66 136.867 30.66C136.294 30.66 135.767 30.8067 135.287 31.1C134.82 31.3933 134.447 31.7933 134.167 32.3C133.9 32.8067 133.767 33.3733 133.767 34C133.767 34.6267 133.9 35.1933 134.167 35.7C134.447 36.2067 134.82 36.6067 135.287 36.9C135.767 37.18 136.294 37.32 136.867 37.32C137.32 37.32 137.74 37.24 138.127 37.08C138.527 36.92 138.854 36.7 139.107 36.42C139.36 36.14 139.507 35.8267 139.547 35.48V34.9H141.427V39.22H139.667V38.06ZM145.15 37.1H147.35V30.9H144.93C144.917 30.9 144.91 30.9067 144.91 30.92C144.91 30.92 144.903 30.92 144.89 30.92C144.89 30.92 144.89 30.9267 144.89 30.94V33.08H142.99V28.14H144.81V29H151.75V28.14H153.59V33.08H151.69V30.94C151.69 30.9267 151.683 30.92 151.67 30.92C151.67 30.9067 151.663 30.9 151.65 30.9H149.25V37.1H151.45V39H145.15V37.1ZM162.716 38.22C162.463 38.4467 162.109 38.66 161.656 38.86C161.376 38.9667 161.069 39.0467 160.736 39.1C160.403 39.1667 160.056 39.2 159.696 39.2C158.749 39.2 157.896 38.9933 157.136 38.58C156.389 38.1533 155.796 37.5533 155.356 36.78C154.916 36.0067 154.696 35.1067 154.696 34.08C154.696 33.0533 154.923 32.14 155.376 31.34C155.829 30.54 156.449 29.92 157.236 29.48C158.023 29.0267 158.903 28.8 159.876 28.8C160.863 28.8 161.743 29.02 162.516 29.46C163.289 29.9 163.889 30.5133 164.316 31.3C164.756 32.0867 164.976 32.9867 164.976 34C164.976 34.1467 164.969 34.2933 164.956 34.44C164.956 34.5867 164.949 34.7333 164.936 34.88H156.676C156.783 35.3867 156.983 35.84 157.276 36.24C157.583 36.6267 157.963 36.9267 158.416 37.14C158.869 37.3533 159.376 37.46 159.936 37.46C160.349 37.46 160.749 37.3867 161.136 37.24C161.536 37.08 161.856 36.8867 162.096 36.66C162.336 36.4333 162.456 36.22 162.456 36.02V35.74H164.496V39.22H162.716V38.22ZM162.936 33.16C162.843 32.64 162.649 32.1867 162.356 31.8C162.076 31.4 161.716 31.0933 161.276 30.88C160.836 30.6667 160.349 30.56 159.816 30.56C159.296 30.56 158.816 30.6733 158.376 30.9C157.936 31.1133 157.569 31.42 157.276 31.82C156.983 32.22 156.789 32.6667 156.696 33.16H162.936ZM166.291 37.1H167.951V30.9H166.291V29H172.471C173.564 29 174.424 29.2333 175.051 29.7C175.677 30.1533 175.991 30.7867 175.991 31.6C175.991 32.1333 175.851 32.5933 175.571 32.98C175.291 33.3533 174.891 33.64 174.371 33.84V34C175.011 34.1867 175.497 34.48 175.831 34.88C176.177 35.28 176.351 35.7733 176.351 36.36C176.351 37.1867 176.031 37.8333 175.391 38.3C174.751 38.7667 173.864 39 172.731 39H166.291V37.1ZM172.711 37.2C173.217 37.2 173.611 37.1 173.891 36.9C174.171 36.6867 174.311 36.3933 174.311 36.02C174.311 35.6733 174.164 35.3933 173.871 35.18C173.577 34.9667 173.177 34.86 172.671 34.86H169.851V37.2H172.711ZM172.291 33.12C172.784 33.12 173.171 33.02 173.451 32.82C173.744 32.6067 173.891 32.32 173.891 31.96C173.891 31.6 173.757 31.32 173.491 31.12C173.224 30.9067 172.844 30.8 172.351 30.8H169.851V33.12H172.291ZM183.182 39.2C182.155 39.2 181.229 38.98 180.402 38.54C179.589 38.0867 178.949 37.4667 178.482 36.68C178.015 35.88 177.782 34.9867 177.782 34C177.782 33.0133 178.015 32.1267 178.482 31.34C178.949 30.54 179.589 29.92 180.402 29.48C181.229 29.0267 182.155 28.8 183.182 28.8C184.209 28.8 185.129 29.0267 185.942 29.48C186.769 29.92 187.415 30.54 187.882 31.34C188.349 32.1267 188.582 33.0133 188.582 34C188.582 34.9867 188.349 35.88 187.882 36.68C187.415 37.4667 186.769 38.0867 185.942 38.54C185.129 38.98 184.209 39.2 183.182 39.2ZM183.182 37.3C183.822 37.3 184.395 37.16 184.902 36.88C185.422 36.5867 185.822 36.1933 186.102 35.7C186.395 35.1933 186.542 34.6267 186.542 34C186.542 33.3733 186.395 32.8133 186.102 32.32C185.822 31.8133 185.422 31.42 184.902 31.14C184.395 30.8467 183.822 30.7 183.182 30.7C182.542 30.7 181.962 30.8467 181.442 31.14C180.935 31.42 180.535 31.8133 180.242 32.32C179.962 32.8133 179.822 33.3733 179.822 34C179.822 34.6267 179.962 35.1933 180.242 35.7C180.535 36.1933 180.935 36.5867 181.442 36.88C181.962 37.16 182.542 37.3 183.182 37.3ZM191.149 30.9H189.689V29H194.249V30.9H193.049V35.94L197.989 29H201.489V30.9H199.849V37.1H201.489V39H196.349V37.4H197.989V31.8L192.869 39.1H191.149V30.9ZM195.629 27.74C194.882 27.74 194.222 27.5933 193.649 27.3C193.076 27.0067 192.629 26.6 192.309 26.08C191.989 25.5467 191.829 24.94 191.829 24.26V24.1H193.649V24.24C193.649 24.7867 193.829 25.2267 194.189 25.56C194.562 25.8933 195.042 26.06 195.629 26.06C196.216 26.06 196.696 25.8933 197.069 25.56C197.442 25.2133 197.629 24.7733 197.629 24.24V24.1H199.429V24.26C199.429 24.94 199.269 25.5467 198.949 26.08C198.629 26.6 198.182 27.0067 197.609 27.3C197.036 27.5933 196.376 27.74 195.629 27.74ZM207.067 37.1H208.707C208.933 36.1267 209.12 35.2133 209.267 34.36C209.413 33.5067 209.52 32.6133 209.587 31.68C209.587 31.6133 209.587 31.5533 209.587 31.5C209.6 31.4333 209.607 31.3667 209.607 31.3C209.62 31.2333 209.627 31.1667 209.627 31.1C209.627 31.0333 209.633 30.9667 209.647 30.9H207.987V29H218.607V30.9H216.947V37.1H218.727V41.4H216.827V39.04C216.827 39.0267 216.82 39.02 216.807 39.02C216.807 39.02 216.807 39.0133 216.807 39C216.807 39 216.8 39 216.787 39H209.027C209.013 39 209.007 39 209.007 39C209.007 39.0133 209 39.02 208.987 39.02C208.987 39.02 208.987 39.0267 208.987 39.04V41.4H207.067V37.1ZM215.047 37.2V30.84H211.427C211.347 31.9733 211.227 33.0533 211.067 34.08C210.907 35.0933 210.707 36.1333 210.467 37.2H215.047ZM225.116 39.2C224.089 39.2 223.162 38.98 222.336 38.54C221.522 38.0867 220.882 37.4667 220.416 36.68C219.949 35.88 219.716 34.9867 219.716 34C219.716 33.0133 219.949 32.1267 220.416 31.34C220.882 30.54 221.522 29.92 222.336 29.48C223.162 29.0267 224.089 28.8 225.116 28.8C226.142 28.8 227.062 29.0267 227.876 29.48C228.702 29.92 229.349 30.54 229.816 31.34C230.282 32.1267 230.516 33.0133 230.516 34C230.516 34.9867 230.282 35.88 229.816 36.68C229.349 37.4667 228.702 38.0867 227.876 38.54C227.062 38.98 226.142 39.2 225.116 39.2ZM225.116 37.3C225.756 37.3 226.329 37.16 226.836 36.88C227.356 36.5867 227.756 36.1933 228.036 35.7C228.329 35.1933 228.476 34.6267 228.476 34C228.476 33.3733 228.329 32.8133 228.036 32.32C227.756 31.8133 227.356 31.42 226.836 31.14C226.329 30.8467 225.756 30.7 225.116 30.7C224.476 30.7 223.896 30.8467 223.376 31.14C222.869 31.42 222.469 31.8133 222.176 32.32C221.896 32.8133 221.756 33.3733 221.756 34C221.756 34.6267 221.896 35.1933 222.176 35.7C222.469 36.1933 222.869 36.5867 223.376 36.88C223.896 37.16 224.476 37.3 225.116 37.3ZM231.623 37.1H233.263V30.98L233.203 30.9H231.623V29H236.023L239.163 36.12L242.263 29H246.643V30.9H245.023V37.1H246.643V39H241.703V37.1H243.183V31.4H243.123L239.863 39H238.423L235.143 31.4H235.103V37.1H236.583V39H231.623V37.1Z" fill="white"/>
<path d="M1 49.7308V30.6485L15.5233 13.1154H43.1866L60.1304 30.6485H31.1992V49.7308H1Z" stroke="white" stroke-width="2"/>
<path d="M16.4348 27.8269V21.2885M16.4348 21.2885H19.6957V28.1539H14.9131V21.2885H16.4348Z" stroke="white"/>
<path d="M41.652 27.5V20.9615M41.652 20.9615H43.1737V27.8269H38.3911V20.9615H41.652Z" stroke="white"/>
<rect x="58.8262" y="30.7692" width="2.17391" height="19.6154" fill="white"/>
<rect x="38.7144" y="42.5385" width="20.5714" height="7.84615" fill="white"/>
<path d="M38.7144 43.1923L40.1429 45.1538V53L38.7144 51.0385V43.1923Z" fill="#0561BD"/>
<path d="M54.7144 23.5769L65.2858 11.4808L72.4286 16.3846L83.8572 14.0962L99.0001 48.0962H61.0001" stroke="white" stroke-width="2"/>
<path d="M27.2856 11.8077L40.7142 2L50.4285 8.53846H54.4285L57.5714 19.9808" stroke="white" stroke-width="2"/>
</svg>
