<svg width="27" height="26" viewBox="0 0 27 26" fill="none" xmlns="http://www.w3.org/2000/svg">
<ellipse cx="13.5" cy="13" rx="13.5" ry="13" transform="matrix(-1 0 0 1 27 0)" fill="white"/>
<path d="M17.7071 12.2929C18.0976 12.6834 18.0976 13.3166 17.7071 13.7071L11.3431 20.0711C10.9526 20.4616 10.3195 20.4616 9.92893 20.0711C9.53841 19.6805 9.53841 19.0474 9.92893 18.6569L15.5858 13L9.92893 7.34315C9.53841 6.95262 9.53841 6.31946 9.92893 5.92893C10.3195 5.53841 10.9526 5.53841 11.3431 5.92893L17.7071 12.2929ZM15 13V12H17V13V14H15V13Z" fill="#170000"/>
</svg>
